<svg id="Layer_1" data-name="Layer 1" xmlns="http://www.w3.org/2000/svg" xmlns:xlink="http://www.w3.org/1999/xlink" width="103" height="29.64" viewBox="0 0 103 29.64">
  <defs>
    <style>
      .cls-1 {
        fill: none;
      }

      .cls-2 {
        clip-path: url(#clip-path);
      }

      .cls-3 {
        fill: #1d1d1b;
      }
    </style>
    <clipPath id="clip-path" transform="translate(-10.5 -5.36)">
      <rect class="cls-1" x="10.5" y="5" width="103" height="30"/>
    </clipPath>
  </defs>
  <title>text</title>
  <g class="cls-2">
    <g>
      <path class="cls-3" d="M39.37,35a2.47,2.47,0,0,0,1.91-.91h0a2.74,2.74,0,0,0,.59-1.92V30.88h-2.5v.53h1.95v.72a2.43,2.43,0,0,1-.44,1.57,1.89,1.89,0,0,1-1.51.77A1.84,1.84,0,0,1,38,33.86c-.52-.57-.56-1.18-.56-2.89s0-2.32.56-2.89a1.84,1.84,0,0,1,1.38-.61,2,2,0,0,1,1.93,1.78h.55a2.52,2.52,0,0,0-2.48-2.32,2.45,2.45,0,0,0-1.81.81c-.66.72-.67,1.43-.67,3.22s0,2.5.67,3.22A2.45,2.45,0,0,0,39.37,35Z" transform="translate(-10.5 -5.36)"/>
      <path class="cls-3" d="M48.13,33l.63,1.93h.59L46.68,27h-.49l-2.67,7.94h.59L44.75,33Zm-3.21-.54,1.52-4.67L48,32.47Z" transform="translate(-10.5 -5.36)"/>
      <path class="cls-3" d="M54,31.28l1.73,3.66h.64l-1.75-3.67a2,2,0,0,0,1.67-2.14A2,2,0,0,0,54.18,27H51.41v7.94H52V31.28Zm-2-3.75H54.1a1.47,1.47,0,0,1,1.6,1.6,1.47,1.47,0,0,1-1.6,1.6H52Z" transform="translate(-10.5 -5.36)"/>
      <path class="cls-3" d="M62.53,33l.63,1.93h.59L61.08,27h-.49l-2.67,7.94h.59L59.15,33Zm-3.21-.54,1.52-4.67,1.52,4.67Z" transform="translate(-10.5 -5.36)"/>
      <path class="cls-3" d="M64.44,27l2.38,7.94h.47L69.68,27H69.1l-2,6.88L65,27Z" transform="translate(-10.5 -5.36)"/>
      <path class="cls-3" d="M75,33l.63,1.93h.59L73.52,27H73l-2.67,7.94h.59L71.58,33Zm-3.21-.54,1.52-4.67,1.52,4.67Z" transform="translate(-10.5 -5.36)"/>
      <path class="cls-3" d="M78.79,28,83,34.93h.55V27H83v6.88L78.79,27h-.55v7.94h.55Z" transform="translate(-10.5 -5.36)"/>
      <path class="cls-3" d="M86.56,27h.55v7.94h-.55Z" transform="translate(-10.5 -5.36)"/>
      <path class="cls-3" d="M107.61,5.36c-3.19,0-6,4-6,8.62,0,4.34,2.56,8,5.83,8s6.06-3.68,6.06-8C113.5,9.38,110.81,5.36,107.61,5.36Zm3.91,8.21a24,24,0,0,1-.33,3.93c-.54,3-1.68,4.31-3.82,4.31a2.9,2.9,0,0,1-2.25-.92c-1-1.16-1.57-3.8-1.57-7.15a19.67,19.67,0,0,1,.5-4.5c.56-2.44,1.72-3.66,3.47-3.66a3,3,0,0,1,2.38,1.08C110.92,7.86,111.52,10.48,111.52,13.57Z" transform="translate(-10.5 -5.36)"/>
      <path class="cls-3" d="M20.38,21.54h1.43l4.59-16h.27l4.76,16H33v.19h-5v-.19h1.47l-1.45-4.91H23.42L22,21.54h1.43v.19H20.38ZM28,16.39,25.71,8.56l-2.23,7.83Z" transform="translate(-10.5 -5.36)"/>
      <path class="cls-3" d="M10.5,5.89h1.63l5.42,16.47,4.57-16.5h1.53V5.65H20.71v.22h1.21L18.37,18.7,14.12,5.86h1.49V5.65H10.5Z" transform="translate(-10.5 -5.36)"/>
      <path class="cls-3" d="M35.57,21.54H33.86v.19H44.71v-5.2h-.16a7.11,7.11,0,0,1-.47,2.24,4.11,4.11,0,0,1-3.68,2.75H37.5l0-15.65h1.8V5.65h-5.5v.22h1.74Z" transform="translate(-10.5 -5.36)"/>
      <path class="cls-3" d="M47.38,21.54H45.75v.19H56.89v-5h-.1c-.27,2.8-2.11,4.77-4.4,4.75H49.3v-8h1c1.72,0,2.81,1.33,2.83,3.42v.12h.14V10h-.15c-.13,2-1.18,3.37-2.61,3.35H49.3V5.87h3.56a2.38,2.38,0,0,1,1.67.46A4.5,4.5,0,0,1,56,9.57v.1h.12v-4H45.85v.22h1.53Z" transform="translate(-10.5 -5.36)"/>
      <path class="cls-3" d="M59.34,21.54H58v.19h2.89v-.19H59.53V5.86L68,22.12V5.86h1.45V5.65H66.48v.22h1.3V17.5L61.62,5.65H58v.22h1.36Z" transform="translate(-10.5 -5.36)"/>
      <path class="cls-3" d="M75.2,21.54H73.77v.19h4.82v-.19H77.1V5.86h1.18c1.55,0,3,2,3.21,4.39h.12V5.65H70.69v4.58h.14c.39-2.63,1.8-4.36,3.57-4.36h.81Z" transform="translate(-10.5 -5.36)"/>
      <path class="cls-3" d="M84.67,21.54H83.11v.19H88v-.19H86.48V5.86H88V5.65H83.12v.22h1.55Z" transform="translate(-10.5 -5.36)"/>
      <path class="cls-3" d="M90.81,21.54H89.46v.19h2.89v-.19H91V5.86l8.45,16.26V5.86h1.45V5.65H98v.22h1.3V17.5L93.1,5.65H89.46v.22h1.35Z" transform="translate(-10.5 -5.36)"/>
    </g>
  </g>
</svg>
