<svg width="1063" height="745" viewBox="0 0 1063 745" fill="none" xmlns="http://www.w3.org/2000/svg">
<g filter="url(#filter0_d_147_6112)">
<path d="M199.533 314.463C199.786 316.32 200.83 317.752 202.633 318.732C207.768 321.521 211.359 323.152 215.584 323.152C223.212 323.152 232.89 317.822 257.397 304.33C273.298 295.576 295.071 283.592 326.609 267.333C338.913 260.99 350.793 254.944 362.28 249.103C404.809 227.471 441.535 208.794 476.157 186.979C514.025 163.123 545.551 137.738 575.366 107.093C596.37 85.5039 604.315 73.288 601.128 67.4842C597.032 60.0168 575.458 64.5015 545.589 70.7091C540.271 71.8128 534.775 72.9542 529.069 74.0956C517.663 76.3729 506.392 77.5897 495.486 78.7634C473.084 81.1807 449.916 83.6734 424.047 95.4694C395.045 108.687 365.768 132.424 334.537 168.033C307.08 199.34 277.346 228.041 253.452 251.106C221.36 282.084 198.171 304.47 199.528 314.463H199.533ZM254.577 252.269C278.487 229.183 308.248 200.454 335.754 169.099C366.828 133.668 395.933 110.065 424.72 96.9446C450.352 85.2617 473.385 82.7797 495.664 80.3785C506.602 79.1994 517.916 77.9827 529.392 75.6892C535.109 74.5478 540.61 73.4064 545.928 72.2974C574.015 66.4613 596.197 61.8527 599.723 68.2702C602.436 73.2126 594.093 85.547 574.22 105.979C544.496 136.532 513.066 161.836 475.312 185.627C440.755 207.4 404.055 226.065 361.564 247.676C350.072 253.518 338.192 259.564 325.882 265.911C294.323 282.181 272.539 294.171 256.633 302.931C218.534 323.906 217.043 324.724 203.419 317.327C202.074 316.595 201.331 315.593 201.153 314.258C199.904 305.079 224.04 281.777 254.598 252.279L254.577 252.269Z" fill="#F1ECEC"/>
<path d="M231.167 296.059C234.547 299.893 237.799 301.685 242.024 301.685C244.296 301.685 246.842 301.169 249.84 300.173C258.721 297.222 272.141 289.728 294.371 277.307C308.458 269.436 325.995 259.643 348.344 247.653C355.39 243.944 362.269 240.337 368.992 236.81C447.79 195.511 504.729 165.673 560.451 105.547C577.955 87.1769 584.506 76.7484 581.68 71.7414C577.955 65.1247 558.734 69.3618 532.127 75.2248C527.589 76.2262 522.901 77.2599 518.04 78.2936C508.243 80.404 498.538 81.6585 489.156 82.8698C469.423 85.4218 449.023 88.0599 426.27 98.7468C400.766 110.726 375.058 131.75 347.676 163.019C323.782 190.299 297.87 215.425 277.044 235.615C248.634 263.159 228.11 283.063 228.928 292.237C229.073 293.841 229.827 295.128 231.167 296.059ZM278.164 236.772C299.006 216.561 324.951 191.408 348.888 164.08C376.124 132.983 401.66 112.088 426.953 100.206C449.475 89.6266 469.752 87.0046 489.355 84.4688C498.77 83.2521 508.507 81.9923 518.374 79.871C523.24 78.8373 527.933 77.8036 532.471 76.8022C549.222 73.1143 563.605 69.9432 572.207 69.9432C576.416 69.9432 579.242 70.7023 580.275 72.5382C582.627 76.7107 575.759 87.1446 559.272 104.448C503.727 164.381 446.896 194.165 368.239 235.389C361.51 238.915 354.631 242.522 347.58 246.237C325.214 258.238 307.672 268.036 293.58 275.908C263.749 292.571 250.373 300.043 242.089 300.043C238.057 300.043 235.236 298.272 232.308 294.934L232.238 294.853L232.152 294.794C231.162 294.127 230.634 293.249 230.532 292.102C229.784 283.693 251.132 262.992 278.164 236.783V236.772Z" fill="#F1ECEC"/>
<path d="M264.605 279.547C265.703 280 266.968 280.226 268.421 280.226C278.761 280.226 298.651 268.817 336.663 247.024C346.503 241.381 357.651 234.991 370.079 227.97L373.293 226.226C446.132 186.719 498.759 158.179 545.535 103.996C559.557 88.8409 564.714 80.1998 562.249 75.9843C558.879 70.2128 542.849 74.0138 518.584 79.7637C514.848 80.6467 510.989 81.5619 507 82.4826C498.818 84.41 490.701 85.6913 482.853 86.9296C448.678 92.3242 413.341 97.8965 360.805 158.002C340.474 181.255 318.373 202.812 300.615 220.137C275.941 244.203 258.119 261.592 258.296 269.975C258.323 271.316 258.791 272.441 259.685 273.318C260.611 276.527 262.226 278.568 264.61 279.547H264.605ZM261.111 272.441L260.934 272.285C260.261 271.682 259.927 270.917 259.906 269.943C259.739 262.26 278.272 244.181 301.735 221.294C319.514 203.953 341.643 182.369 362.016 159.068C385.42 132.289 407.403 114.097 429.214 103.447C448.635 93.9663 466.156 91.199 483.101 88.5286C490.981 87.285 499.131 85.9982 507.361 84.06C511.355 83.1394 515.214 82.2241 518.95 81.3412C533.537 77.8848 546.741 74.7514 554.374 74.7514C557.727 74.7514 560.004 75.3544 560.849 76.8026C562.841 80.2106 557.442 88.7494 544.324 102.925C497.726 156.909 445.206 185.389 372.518 224.815L369.294 226.565C356.849 233.596 345.696 239.992 335.856 245.635C294.28 269.474 273.406 281.443 265.218 278.067C263.248 277.254 261.962 275.542 261.171 272.683L261.106 272.452L261.111 272.441Z" fill="#F1ECEC"/>
<path d="M290.593 257.722C291.675 258.433 293.09 258.777 294.856 258.777C307.672 258.777 338.757 240.375 391.82 208.277C451.187 174.735 495.896 147.504 530.641 102.409C541.191 90.4729 544.959 83.6246 542.855 80.1951C539.813 75.2473 525.931 78.8707 504.917 84.346C502.026 85.0998 499.039 85.8804 495.955 86.6665C489.415 88.3947 482.907 89.6814 476.615 90.9197C447.769 96.6104 417.937 102.49 373.939 152.979C357.161 172.221 339.629 189.466 324.159 204.675C298.01 230.394 284.381 244.268 288.251 250.508C287.842 254.002 288.628 256.43 290.593 257.717V257.722ZM325.29 205.833C340.776 190.602 358.334 173.336 375.155 154.045C394.743 131.573 413.179 116.062 431.523 106.641C447.855 98.2471 462.636 95.3345 476.932 92.5133C483.252 91.2697 489.786 89.9775 496.369 88.2386C499.443 87.4525 502.441 86.6719 505.331 85.9181C518.336 82.5263 530.065 79.4683 536.541 79.4683C539.081 79.4683 540.809 79.9421 541.493 81.0457C543.097 83.6569 539.038 90.4944 529.43 101.364L529.398 101.407C494.835 146.276 450.25 173.422 391.024 206.888C345.104 234.668 307.893 257.173 294.85 257.173C293.451 257.173 292.326 256.914 291.502 256.371C290.022 255.402 289.505 253.453 289.914 250.422L289.957 250.099L289.764 249.835C285.91 244.58 303.296 227.481 325.311 205.833H325.29Z" fill="#F1ECEC"/>
<path d="M317.103 236.149C318.039 236.929 319.423 237.322 321.263 237.322C327.012 237.322 337.212 233.489 352.155 225.747C368.707 217.165 389.953 204.309 413.567 188.588C459.185 161.184 494.022 135.767 515.752 100.82C522.879 92.0877 525.274 87.0161 523.52 84.378C520.764 80.2324 508.911 83.7481 490.976 89.0673C489.006 89.6542 486.982 90.2518 484.899 90.8602C480.049 92.3515 475.199 93.5898 470.505 94.7904C446.95 100.804 422.588 107.022 387.062 147.961C373.815 163.214 359.911 177.056 347.644 189.266C328.283 208.546 315.38 221.386 316.92 227.68C315.208 231.766 315.267 234.609 317.097 236.138L317.103 236.149ZM318.545 227.486C316.807 222.258 330.92 208.206 348.785 190.418C361.069 178.186 374.994 164.323 388.284 149.027C423.482 108.465 447.591 102.312 470.909 96.3625C475.619 95.1619 480.485 93.9182 485.367 92.4161C487.439 91.8077 489.463 91.2101 491.439 90.6233C502.549 87.3284 513.196 84.168 518.659 84.168C520.441 84.168 521.668 84.5018 522.185 85.2771C523.041 86.5692 522.4 90.1387 514.477 99.8404L514.418 99.9266C498.824 125.015 475.57 149.463 412.711 187.226C367.092 217.591 332.68 235.761 321.296 235.756C319.885 235.756 318.83 235.476 318.147 234.91C316.58 233.602 317.49 230.469 318.529 228.062L318.653 227.777L318.556 227.486H318.545Z" fill="#F1ECEC"/>
<path d="M435.34 168.872C471.582 144.736 493.021 121.936 500.891 99.173C504.685 93.6222 505.746 90.3219 504.325 88.4807C501.703 85.0781 491.616 88.696 476.34 94.166L473.815 95.0705C470.774 96.2226 467.717 97.2886 464.762 98.3223C446.39 104.734 427.4 111.362 400.18 142.954C390.421 154.271 380.102 164.748 371 173.992C356.746 188.475 346.395 198.984 345.674 204.89C342.498 209.768 341.863 212.982 343.731 214.716C344.544 215.469 345.852 215.825 347.58 215.825C362.511 215.825 408.657 189.379 435.334 168.867L435.34 168.872ZM344.834 213.537C343.672 212.454 344.49 209.644 347.138 205.617L347.251 205.445L347.267 205.24C347.72 199.953 358.507 188.997 372.157 175.128C381.276 165.863 391.61 155.364 401.407 144.01C428.342 112.751 447.128 106.194 465.295 99.8513C468.26 98.8176 471.329 97.7463 474.375 96.5887L476.889 95.6896C486.809 92.1363 496.288 88.7391 500.713 88.7391C501.854 88.7391 502.656 88.9652 503.044 89.4713C503.544 90.1227 503.754 92.1471 499.491 98.3546L499.427 98.4462L499.389 98.5484C491.778 120.692 469.913 143.902 434.414 167.548L434.371 167.58C418.938 179.451 398 192.696 379.725 202.15C357.392 213.704 347.052 215.615 344.829 213.542L344.834 213.537Z" fill="#F1ECEC"/>
<path d="M485.555 92.2975C482.67 89.7941 474.273 93.6166 462.711 99.2965L460.827 100.276C446.514 107.722 432.993 114.759 413.314 137.936C406.871 145.511 399.975 152.796 393.887 159.224C385.017 168.597 377.346 176.7 374.477 182.143C369.73 187.85 368.4 191.527 370.408 193.379C371.183 194.09 372.432 194.402 374.02 194.402C382.89 194.402 402.36 184.738 408.937 181.341C428.735 171.101 447.645 158.46 457.135 149.129C467.125 140.908 475.538 131.384 480.829 122.302C486.513 112.546 488.327 103.889 486.088 97.2399C486.815 94.8549 486.643 93.2289 485.55 92.2868L485.555 92.2975ZM456.085 147.913L456.031 147.961C446.66 157.189 427.885 169.728 408.2 179.914C392.768 187.898 374.709 195.151 371.506 192.2C370.946 191.683 370.236 189.761 375.774 183.123L375.871 182.978C378.606 177.734 386.233 169.674 395.066 160.344C401.165 153.899 408.076 146.599 414.546 138.992C434.021 116.051 447.403 109.09 461.57 101.714L463.438 100.739C469.461 97.7783 478.961 93.1105 482.988 93.1105C483.65 93.1105 484.167 93.2397 484.49 93.5197C485.205 94.1442 484.872 95.7647 484.468 97.0138L484.382 97.2776L484.473 97.536C488.855 109.843 477.18 130.561 456.079 147.913H456.085Z" fill="#F1ECEC"/>
<path d="M399.545 172.947C399.808 172.969 400.088 172.98 400.384 172.98C415.262 172.98 470.311 144.133 479.021 129.258C483.165 122.178 486.034 111.082 482.53 103.458C480.42 98.8658 476.362 95.9908 470.462 94.9194C458.696 92.782 446.477 107.997 431.007 127.26C422.933 137.312 413.782 148.709 403.27 159.461C397.725 165.136 395.529 168.813 396.353 171.042C396.762 172.151 397.838 172.791 399.545 172.942V172.947ZM404.421 160.597C414.982 149.786 424.16 138.356 432.261 128.278C446.493 110.56 457.915 96.3408 468.218 96.3408C468.869 96.3408 469.52 96.4 470.166 96.5131C475.517 97.4875 479.182 100.05 481.061 104.137C484.323 111.238 481.567 121.715 477.627 128.445C469.359 142.566 414.611 171.37 400.449 171.37C400.18 171.37 399.927 171.359 399.69 171.338C398.657 171.246 398.043 170.961 397.871 170.487C397.612 169.793 397.736 167.44 404.427 160.592L404.421 160.597Z" fill="#F1ECEC"/>
<path d="M538.387 156.894C542.026 156.894 549.524 155.047 565.365 148.942C576.836 144.522 591.294 138.099 606.597 131.299C640.266 116.343 678.429 99.3889 700.391 96.67C711.199 95.3294 721.018 95.1679 729.678 95.0226C747.501 94.7265 759.278 94.5273 759.569 83.7973C759.983 68.5502 758.767 49.9006 745.541 40.9741C739.41 36.834 717.519 32.0693 692.376 33.889C653.776 36.6832 633.704 52.1618 623.66 64.6523C610.887 80.54 572.363 120.434 550.81 137.743C535.163 150.309 534.108 153.83 535.136 155.618C535.55 156.334 536.379 156.894 538.387 156.894ZM551.822 139.003C573.45 121.635 612.103 81.6006 624.914 65.6645C634.759 53.4216 654.471 38.2553 692.489 35.4988C717.271 33.706 738.7 38.3038 744.637 42.3093C757.206 50.7997 758.358 68.9163 757.954 83.7488C757.706 92.9336 747.145 93.1113 729.651 93.402C720.953 93.5474 711.092 93.7143 700.197 95.0603C677.999 97.8114 639.722 114.814 605.946 129.818C590.659 136.607 576.222 143.025 564.789 147.429C540.115 156.942 536.928 155.483 536.54 154.805C536.212 154.239 536.352 151.424 551.827 138.998L551.822 139.003Z" fill="#F1ECEC"/>
<path d="M554.708 143.869C557.937 143.869 564.402 142.318 577.665 137.284C587.451 133.65 599.804 128.293 612.879 122.624C641.967 110.01 674.936 95.7158 694.562 93.6861C703.944 92.5608 712.476 92.4531 720.001 92.3616C734.862 92.1732 745.612 92.0386 746.134 82.913C747.108 78.9128 748.443 71.047 746.65 62.7935C744.863 54.5886 740.525 48.1549 733.753 43.6809C727.52 39.5353 708.056 35.9335 687.478 37.3387C654.089 39.6215 636.681 52.8711 627.967 63.5796C616.539 77.233 583.101 111.717 565.042 126.813C551.548 137.866 550.692 141.026 551.639 142.658C552.027 143.33 552.813 143.863 554.708 143.863V143.869ZM566.07 128.062C584.194 112.912 617.739 78.3206 629.21 64.6133C637.731 54.1471 654.778 41.1936 687.586 38.9539C690.665 38.7439 693.684 38.647 696.613 38.647C714.053 38.647 728.365 42.0442 732.855 45.0269C749.541 56.053 746.021 76.5762 744.546 82.6007L744.524 82.7515C744.153 90.1166 736.294 90.5419 719.979 90.7465C712.411 90.8434 703.836 90.9511 694.379 92.0817C674.522 94.1329 641.429 108.481 612.233 121.144C599.18 126.802 586.848 132.148 577.094 135.772C556.112 143.734 553.373 142.437 553.034 141.85C552.829 141.495 552.501 139.174 566.07 128.062Z" fill="#F1ECEC"/>
<path d="M571.065 130.872C572.056 130.872 573.294 130.711 574.812 130.399C578.3 129.677 583.397 128.073 589.959 125.639C598.087 122.78 608.362 118.473 619.235 113.919C643.711 103.668 671.453 92.044 688.727 90.7142C696.682 89.8044 703.927 89.7505 710.322 89.7075C722.837 89.6213 731.912 89.5567 732.693 82.0786C737.683 73.6851 738.91 57.3936 721.96 46.3944C716.523 42.8572 699.928 39.7131 682.579 40.8006C654.401 42.5665 639.658 53.5926 632.272 62.5137C622.976 73.0391 594.852 102.133 579.269 115.894C572.583 121.521 566.614 127.082 568.137 129.709C568.589 130.485 569.526 130.867 571.065 130.867V130.872ZM580.324 117.122C595.966 103.312 624.166 74.1374 633.5 63.5689C647.14 47.0997 670.425 42.2058 689.771 42.2058C704.471 42.2058 716.894 45.0323 721.077 47.7512C737.171 58.1904 735.955 73.5936 731.212 81.4002L731.116 81.5617L731.099 81.7501C730.599 87.6724 723.628 88.0008 710.311 88.0923C703.879 88.1354 696.585 88.1892 688.576 89.1045C671.071 90.4504 643.205 102.128 618.616 112.427C607.765 116.977 597.511 121.268 589.415 124.121C571.679 130.7 569.747 129.257 569.542 128.902C569.364 128.6 569.058 126.608 580.329 117.122H580.324Z" fill="#F1ECEC"/>
<path d="M587.38 117.888C589.749 117.888 594.076 116.919 602.247 113.99C608.75 111.896 616.991 108.622 625.716 105.155C645.53 97.2893 667.992 88.3683 682.892 87.7384C689.421 87.0439 695.379 87.0493 700.638 87.0546C710.785 87.0708 718.165 87.0762 719.225 81.2885C722.729 78.5266 724.705 74.1011 724.527 69.3741C724.371 65.1316 722.293 56.8513 710.166 49.1039C705.434 46.1105 691.994 43.4832 677.686 44.2584C665.01 44.9476 647.586 48.4955 636.589 61.4383C627.837 70.6016 605.482 93.5314 593.49 104.972C584.334 112.989 583.828 115.374 584.64 116.763C585.012 117.393 585.701 117.877 587.38 117.877V117.888ZM594.582 106.173C606.618 94.6889 629 71.7322 637.79 62.5258C648.786 49.5777 667.136 45.6959 682.671 45.6959C695.046 45.6959 705.639 48.1617 709.299 50.4768C717.825 55.9199 722.659 62.655 722.912 69.4441C723.074 73.7512 721.233 77.7783 717.992 80.2064L717.723 80.411L717.68 80.7448C717.066 85.2618 711.42 85.461 700.644 85.4503C695.342 85.4395 689.34 85.4341 682.773 86.1394C667.653 86.7801 645.056 95.7496 625.119 103.664C616.42 107.12 608.201 110.383 601.725 112.472C587.779 117.463 586.207 116.257 586.035 115.961C585.943 115.804 585.405 114.211 594.582 106.183V106.173Z" fill="#F1ECEC"/>
<path d="M603.755 104.911C605.644 104.911 608.868 104.249 614.52 102.348C619.435 101.002 625.711 98.7411 632.348 96.3399C647.366 90.913 664.375 84.7701 676.766 84.7701C676.836 84.7701 676.906 84.7701 676.971 84.7701H677.014H677.052C682.154 84.2909 686.827 84.3555 690.955 84.4147C698.717 84.5278 704.396 84.6086 705.709 80.5222C709.827 79.2086 712.588 76.199 713.137 72.4088C713.584 69.3023 713.041 61.0704 698.367 51.8263C694.459 49.452 683.828 47.2716 672.799 47.7292C655.079 48.4614 645.67 55.0135 640.89 60.392C634.248 66.5619 616.905 84.1671 607.684 94.0949C602.049 99.3549 600.154 102.181 601.15 103.845C601.505 104.443 602.151 104.916 603.755 104.916V104.911ZM608.809 95.2524L608.852 95.2093C618.057 85.2923 635.416 67.6764 642.021 61.5442L642.075 61.4849C650.375 52.1117 663.928 49.2582 675.7 49.2582C685.718 49.2582 694.443 51.3256 697.517 53.1938C707.136 59.256 712.378 66.3465 711.539 72.1719C711.06 75.4937 708.616 78.0187 704.832 79.0955L704.369 79.2247L704.261 79.6931C703.551 82.8265 699.218 82.9126 690.977 82.7942C686.821 82.735 682.111 82.665 676.939 83.1495C676.879 83.1495 676.825 83.1495 676.766 83.1495C664.09 83.1495 646.94 89.3463 631.799 94.8163C625.189 97.2067 618.945 99.4626 614.047 100.798C603.663 104.292 602.624 103.151 602.538 103.011C602.463 102.887 602 101.6 608.809 95.247V95.2524Z" fill="#F1ECEC"/>
<path d="M620.274 91.9745C621.771 91.9745 623.902 91.5492 626.798 90.704C630.189 90.1063 634.377 88.8842 639.222 87.4683C649.018 84.6041 661.215 81.04 671.087 81.7937H671.147H671.206C674.877 81.5353 678.268 81.6645 681.261 81.7775C686.649 81.9821 690.632 82.1329 692.118 79.7048C697.215 79.5863 700.8 77.562 701.753 74.2402C703.314 68.7971 697.646 61.4374 686.563 54.5353C680.647 51.165 656.602 47.4986 645.229 59.3C639.695 63.4617 627.643 75.5054 621.878 83.215C618.019 87.2744 616.802 89.5195 617.674 90.9516C618.094 91.6354 618.923 91.9799 620.274 91.9799V91.9745ZM623.084 84.2918L623.149 84.2164C628.849 76.5767 640.82 64.6192 646.257 60.549L646.354 60.4629C651.946 54.6268 660.801 52.7586 668.827 52.7586C676.292 52.7586 683.032 54.3792 685.745 55.9243C693.781 60.9259 701.796 68.2479 700.208 73.7987C699.438 76.4906 696.241 78.1004 691.655 78.1004H691.095L690.885 78.5957C690.078 80.507 686.407 80.3616 681.331 80.1732C678.311 80.0601 674.893 79.9309 671.157 80.1893C661 79.4356 648.679 83.0374 638.775 85.9285C633.952 87.3391 629.791 88.5558 626.481 89.1319L626.389 89.1534C619.747 91.1024 619.079 90.1602 619.052 90.1171C618.993 90.0202 618.595 89.0188 623.084 84.3026V84.2918Z" fill="#F1ECEC"/>
<path d="M638.941 79.0747C640.96 79.2955 643.581 79.0209 646.617 78.6979C651.779 78.1541 658.206 77.4757 665.172 78.8002L665.252 78.8163H665.333C667.561 78.7894 669.672 78.9886 671.539 79.1663C672.982 79.3009 674.258 79.4247 675.345 79.4247C676.604 79.4247 677.627 79.2632 678.392 78.784C684.802 79.9577 689.324 78.8432 690.519 75.7798C692.257 71.322 686.385 64.3984 674.807 57.2648L674.747 57.2325C672.508 56.0911 668.03 54.8474 663.067 54.6482C659.057 54.4867 653.491 54.9713 649.632 58.1639C645.363 60.129 638.559 66.7134 636.029 72.4149C634.038 75.2899 633.5 77.0127 634.232 78.1702C634.888 79.2147 636.347 79.4947 638.947 79.0801L638.941 79.0747ZM637.397 73.2656L637.472 73.1256C639.813 67.774 646.456 61.3403 650.391 59.5852L650.493 59.5368L650.579 59.4614C654.045 56.538 659.245 56.0965 662.997 56.2526C667.669 56.441 671.954 57.6255 673.983 58.6484C686.756 66.5304 690.061 72.4795 689.006 75.1876C688.113 77.4811 684.027 78.2241 678.349 77.1258L677.972 77.0504L677.676 77.2981C676.804 78.0303 674.435 77.8095 671.685 77.5511C669.898 77.3842 667.89 77.1958 665.737 77.1958C665.624 77.1958 665.505 77.1958 665.387 77.1958C658.217 75.8498 651.688 76.5389 646.44 77.0935C643.447 77.4111 640.863 77.6803 639.011 77.4596L638.898 77.4434L638.785 77.465C636.116 77.9064 635.653 77.4111 635.588 77.3034C635.475 77.1258 635.276 76.3074 637.391 73.2656H637.397Z" fill="#F1ECEC"/>
<path d="M664.515 77.7133C668.348 78.9893 671.62 79.6192 674.134 79.6192C676.852 79.6192 678.682 78.8762 679.366 77.3956C681.072 73.7131 675.114 67.3655 663.013 59.9735L661.786 59.4674C656.845 57.4808 652.942 55.9141 650.988 57.5454C649.998 58.3745 649.729 59.8389 650.175 62.0301C650.477 63.5107 650.45 64.7974 650.429 65.9334C650.342 70.6928 650.902 73.1801 664.515 77.7025V77.7133ZM652.022 58.7945C652.28 58.5791 652.668 58.4876 653.158 58.4876C654.993 58.4876 658.244 59.7958 661.183 60.9749L662.227 61.3949C676.233 69.9605 678.672 75.059 677.897 76.7227C677.17 78.284 672.831 78.7793 665.021 76.1843C651.936 71.8341 651.973 69.756 652.043 65.9765C652.065 64.7544 652.092 63.3707 651.758 61.7179C651.543 60.6626 651.419 59.3005 652.022 58.7945Z" fill="#F1ECEC"/>
<path d="M724.064 175.785C715.473 185.632 712.696 192.766 715.818 197.003C717.594 199.409 721.238 200.631 726.519 200.631C728.866 200.631 731.541 200.389 734.517 199.905C743.808 198.386 755.327 194.645 767.826 189.089C784.227 181.799 817.724 161.098 856.512 137.129C907.836 105.413 966.002 69.4594 995.424 58.3095C1037.75 42.2656 1059.14 28.9137 1059 18.6198C1058.94 13.9251 1054.46 10.0003 1045.68 6.94762C1016.79 -3.08787 808.471 -0.778202 775.862 41.7165C769.747 49.69 769.758 61.6744 769.774 74.3695C769.785 81.1101 769.791 88.0768 768.919 94.8927C766.313 115.249 747.872 148.51 724.064 175.785ZM770.523 95.0973C771.405 88.1737 771.4 81.1532 771.389 74.3641C771.373 61.9544 771.357 50.2337 777.138 42.6964C784.442 33.1777 801.581 25.0535 828.086 18.5552C850.365 13.0906 879.383 8.84273 912.002 6.28002C972.946 1.48301 1031.09 3.5881 1045.16 8.47125C1053.22 11.2708 1057.34 14.695 1057.39 18.6359C1057.48 25.1935 1046.71 37.1402 994.854 56.7913C965.292 67.995 907.05 103.991 855.667 135.745C818.542 158.686 783.479 180.356 767.174 187.608C742.226 198.699 721.642 202.166 717.12 196.039C714.58 192.599 717.481 185.783 725.281 176.846C749.659 148.914 767.842 116.062 770.523 95.0973Z" fill="#F1ECEC"/>
<path d="M748.276 179.823C756.775 179.823 769.565 176.399 784.502 169.857C801.699 162.778 837.371 140.833 875.136 117.602C905.387 98.9899 936.666 79.748 960.549 66.8591C970.62 61.3891 979.05 57.2758 985.584 54.6431C1022.07 40.4782 1040.45 28.7092 1040.21 19.6751C1040.1 15.368 1035.84 11.8093 1027.57 9.10119C1014.13 4.75104 963.413 3.16819 909.343 7.7337C880.702 10.1564 855.166 14.0436 835.498 18.9859C811.894 24.9189 796.446 32.3325 789.583 41.0274C783.969 48.1556 783.78 58.7725 783.576 70.014C783.474 75.764 783.366 81.7131 782.548 87.5115C779.663 105.58 764.494 134.023 744.799 158.298C737.758 166.665 735.589 172.786 738.355 176.49C740.029 178.735 743.464 179.828 748.265 179.823H748.276ZM746.047 159.332L746.058 159.321C765.92 134.846 781.229 106.086 784.152 87.7484C784.986 81.8369 785.094 75.8393 785.196 70.0409C785.395 59.0794 785.578 48.7209 790.853 42.0234C797.49 33.6138 812.643 26.3887 835.896 20.5472C855.478 15.6264 880.928 11.75 909.483 9.33808C929.647 7.63679 953.423 6.65693 974.604 6.65693C998.175 6.65693 1018.53 7.86829 1027.07 10.6302C1034.63 13.1068 1038.5 16.1594 1038.6 19.7128C1038.75 25.4089 1029.58 35.8266 984.998 53.1357C978.393 55.8007 969.91 59.9355 959.785 65.4377C935.864 78.3482 904.564 97.6062 874.291 116.229C836.585 139.428 800.967 161.34 783.872 168.371C761.889 177.998 743.706 180.937 739.663 175.521C737.435 172.544 739.647 166.945 746.053 159.332H746.047Z" fill="#F1ECEC"/>
<path d="M769.931 158.977C777.369 158.977 788.383 156.113 801.172 150.632C819.339 143.827 856.819 120.816 893.061 98.565C915.76 84.6316 937.199 71.4681 954.322 61.9387C962.611 57.2601 970.034 53.4645 975.756 50.9772C1006.41 38.6859 1021.78 28.5104 1021.44 20.72C1021.27 16.7467 1017.36 13.6456 1009.46 11.2444C994.165 6.72198 944.035 7.35189 906.814 10.7868C874.765 13.7425 818.698 21.5114 803.309 40.3279C798.195 46.6109 797.792 55.8603 797.366 65.6536C797.156 70.4183 796.941 75.3499 796.188 80.1253C793.136 95.3939 780.82 119.788 765.538 140.828C760.042 147.719 758.476 152.818 760.888 155.978C762.427 157.997 765.56 158.983 769.925 158.983L769.931 158.977ZM766.819 141.813L766.841 141.787C782.246 120.569 794.68 95.9161 797.781 80.4053C798.556 75.506 798.771 70.5313 798.981 65.7235C799.396 56.2049 799.789 47.2139 804.563 41.3509C810.533 34.0504 823.699 27.7244 843.701 22.5397C860.592 18.1627 882.467 14.6524 906.959 12.3966C927.876 10.4691 948.368 9.62926 965.647 9.62926C986.3 9.62926 1002.35 10.8299 1008.99 12.795C1016.05 14.9377 1019.69 17.6297 1019.82 20.7954C1020.03 25.6247 1012.45 34.5242 975.126 49.4912C969.329 52.0109 961.857 55.8334 953.525 60.5335C936.376 70.0791 914.925 83.248 892.21 97.1975C856.033 119.411 818.623 142.379 800.564 149.141C781.541 157.297 765.754 159.704 762.174 154.998C760.295 152.533 761.9 147.973 766.814 141.819L766.819 141.813Z" fill="#F1ECEC"/>
<path d="M791.58 138.129C797.958 138.129 807.2 135.825 817.864 131.394C837.387 124.885 876.164 100.981 910.377 79.8867C924.286 71.3103 937.425 63.2076 948.094 57.0108C954.687 53.0913 960.861 49.7264 965.927 47.3037C991.112 36.746 1003.14 28.3903 1002.72 21.7574C1002.49 18.1717 998.772 15.4313 991.349 13.3855C980.18 10.4405 943.712 9.77831 904.283 13.8377C877.596 16.5835 830.777 23.5879 817.045 39.6263C812.422 45.064 811.792 52.946 811.13 61.2856C810.828 65.0543 810.516 68.9522 809.827 72.7478C806.145 87.2734 795.251 108.405 786.272 123.361C782.305 128.777 781.336 132.848 783.393 135.464C784.803 137.262 787.645 138.14 791.585 138.14L791.58 138.129ZM787.591 124.282L787.634 124.223C796.677 109.159 807.669 87.8225 811.394 73.1139L811.404 73.06C812.115 69.1783 812.427 65.2265 812.734 61.4094C813.38 53.3336 813.988 45.7101 818.267 40.6708C824.005 33.9733 842.829 21.7843 904.445 15.4421C923.877 13.4393 942.56 12.5887 957.815 12.5887C973.069 12.5887 985.358 13.477 990.929 14.9468C997.507 16.7612 1000.93 19.087 1001.11 21.8597C1001.36 25.8329 995.359 33.2088 965.264 45.8285C960.124 48.289 953.901 51.6754 947.275 55.6164C936.596 61.8239 923.451 69.9266 909.532 78.5085C875.378 99.5647 836.665 123.431 817.325 129.87L817.272 129.892C801.209 136.573 787.796 138.452 784.658 134.463C783.123 132.514 784.141 128.993 787.591 124.287V124.282Z" fill="#F1ECEC"/>
<path d="M813.143 117.349C819.096 117.349 827.273 115.045 834.54 112.165C856.42 105.903 897.55 79.9801 927.585 61.0451C932.742 57.7932 937.614 54.7245 941.882 52.0756C946.565 49.0607 951.625 46.0565 956.136 43.6122C975.427 34.9657 984.567 28.1498 984.067 22.7821C983.77 19.5733 980.229 17.2044 973.236 15.5247C963.036 13.2312 933.512 13.1127 901.754 16.8868C880.438 19.4226 842.872 25.6517 830.788 38.9121C826.632 43.5153 825.76 50.0244 824.84 56.9157C824.468 59.6884 824.086 62.5526 823.473 65.336C820.975 72.9757 816.922 82.4297 813.003 91.5715C810.791 96.7292 808.702 101.596 806.985 105.925C804.525 109.871 804.138 112.908 805.833 114.943C807.244 116.639 809.854 117.339 813.143 117.339V117.349ZM808.39 106.727L808.455 106.598C810.167 102.275 812.26 97.3861 814.478 92.2176C818.418 83.0273 822.493 73.5248 825.012 65.8098L825.034 65.7344C825.663 62.8702 826.056 59.9576 826.433 57.1418C827.321 50.5035 828.161 44.2367 831.977 40.005C837.01 34.4812 852.798 24.3434 901.942 18.5019C919.458 16.4184 936.268 15.5247 949.482 15.5247C960.092 15.5247 968.387 16.1007 972.87 17.1129C978.921 18.5665 982.236 20.5801 982.457 22.949C982.748 26.0662 978.296 31.9293 955.447 42.1693L955.393 42.1962C950.839 44.6621 945.731 47.6932 941.015 50.7296C936.752 53.3731 931.881 56.4473 926.719 59.6991C896.748 78.591 855.699 104.466 834.055 110.641L833.98 110.668C820.867 115.874 809.8 117.22 807.071 113.941C805.564 112.132 806.958 109.031 808.39 106.749V106.727Z" fill="#F1ECEC"/>
<path d="M851.205 92.9377C876.175 87.1501 918.586 58.9872 935.681 47.1319C939.315 44.4723 943.104 42.0011 946.339 39.9283C959.995 33.0962 966.094 27.9708 965.523 23.7983C965.136 20.9611 961.734 18.9583 955.113 17.6715C944.665 15.8033 921.153 16.7617 899.213 19.9489C883.286 22.2586 855.005 27.7016 844.535 38.2001C840.811 41.9796 839.653 47.1266 838.431 52.575C838.033 54.3355 837.624 56.1553 837.123 57.9212C832.5 68.5866 827.768 80.5549 827.66 88.6306C826.412 91.7263 827.241 93.5245 828.166 94.499C829.518 95.915 831.881 96.4964 834.782 96.4964C839.54 96.4964 845.73 94.9351 851.21 92.9431L851.205 92.9377ZM829.205 89.1098L829.27 88.9644V88.8029C829.318 81.0017 834.023 69.1196 838.62 58.5188L838.657 58.4219C839.18 56.5967 839.599 54.7339 840.003 52.9357C841.177 47.7188 842.28 42.7926 845.676 39.3415C859.602 25.3812 911.437 18.3337 940.278 18.3337C946.318 18.3337 951.35 18.6406 954.811 19.2598C960.496 20.3635 963.644 22.0055 963.919 24.0137C964.231 26.2803 961.298 30.6358 945.575 38.5016L945.499 38.5447C942.237 40.6336 938.405 43.1317 934.739 45.8183C917.724 57.6197 875.481 85.6803 850.785 91.3764L850.688 91.4033C840.369 95.1666 831.784 95.9634 829.324 93.3846C828.441 92.4585 828.398 91.021 829.2 89.1098H829.205Z" fill="#F1ECEC"/>
<path d="M850.472 74.3794C851.84 75.23 853.89 75.6554 856.431 75.6554C859.591 75.6554 863.52 75.0039 867.848 73.7118C889.47 70.0669 917.407 52.7417 929.512 42.1463C931.181 40.5742 933.157 38.9752 935.067 37.4301C935.579 37.0155 936.079 36.6117 936.564 36.2133C944.557 31.2386 947.835 27.7068 947.206 24.7619C946.667 22.2422 943.416 20.6701 936.973 19.8141C919.651 17.7144 873.301 24.4012 858.288 37.4731C854.843 40.515 853.212 44.5206 851.64 48.397C851.36 49.0915 851.081 49.7806 850.79 50.4643C845.176 59.7461 844.341 67.4558 848.475 71.6875C848.734 72.8073 849.401 73.7118 850.472 74.3794ZM852.2 51.2504L852.254 51.1481C852.555 50.4374 852.846 49.7214 853.137 48.9999C854.709 45.129 856.194 41.4679 859.354 38.6845C872.089 27.5938 909.656 21.0578 929.755 21.0578C932.441 21.0578 934.814 21.1762 936.774 21.4131C943.637 22.3284 945.381 23.922 945.634 25.1011C945.946 26.5385 944.466 29.4027 935.676 34.8673L935.59 34.9266C935.094 35.3304 934.583 35.7449 934.061 36.1702C932.128 37.7369 930.126 39.3521 928.436 40.9511C916.481 51.4065 888.857 68.5487 867.541 72.1236L867.444 72.1451C860.156 74.3256 853.982 74.6594 851.334 73.0065C850.58 72.5381 850.149 71.9297 850.02 71.1545L849.977 70.8907L849.783 70.7076C844.298 65.4099 850.252 54.4753 852.206 51.2504H852.2Z" fill="#F1ECEC"/>
<path d="M876.751 54.864C901.888 54.864 920.254 43.7463 923.452 36.9896C923.931 35.972 924.948 34.7445 926.025 33.447C928.248 30.7659 930.546 27.9932 929.475 25.5651C928.533 23.4223 925.147 22.2755 918.828 21.9633C908.229 21.4411 894.256 24.9406 881.45 31.3204C869.484 37.2857 861.555 44.1986 861.254 48.931C861.109 51.1868 862.492 53.9972 869.915 54.5894C872.246 54.7724 874.523 54.864 876.751 54.864ZM862.869 49.0386C863.127 44.9954 871.067 38.3033 882.177 32.7687C893.922 26.911 906.636 23.53 916.691 23.53C917.391 23.53 918.08 23.5461 918.752 23.5784C925.583 23.9176 927.553 25.199 928 26.2165C928.667 27.7348 926.606 30.2221 924.787 32.4187C923.645 33.797 922.563 35.0999 921.998 36.3005C918.774 43.111 897.518 55.1655 870.049 52.985C866.674 52.7158 862.697 51.8167 862.874 49.044L862.869 49.0386Z" fill="#F1ECEC"/>
<path d="M82.7274 475.709C57.6493 509.013 35.6769 546.641 11.4815 597.712C-1.10867 624.292 2.20171 646.447 21.332 663.567C46.5501 686.136 99.4408 698.568 166.956 698.568C181.038 698.568 195.754 698.029 210.982 696.926C251.928 693.964 293.575 687.062 331.415 676.968C371.264 666.334 405.826 652.374 431.356 636.594C466.102 615.118 497.02 579.881 525.883 528.874C551.322 483.908 571.975 432.794 591.95 383.354C617.701 319.626 642.026 259.429 673.418 220.488C695.304 193.337 711.189 170.509 720.63 152.64C730.9 133.199 733.446 119.67 728.204 112.423C721.427 103.066 701.823 104.433 669.935 116.488C619.036 135.724 513.475 182.467 410.197 234.577C354.599 262.632 306.412 288.771 266.968 312.277C221.322 339.481 188.767 362.384 170.218 380.345C134.482 414.947 107.38 442.97 82.7274 475.714V475.709ZM171.343 381.502C217.506 336.806 341.26 271.166 410.924 236.015C514.154 183.926 619.65 137.216 670.506 117.995C701.629 106.232 720.603 104.676 726.896 113.371C733.543 122.555 729.442 148.414 672.159 219.47C640.616 258.6 616.248 318.899 590.454 382.746C570.5 432.132 549.863 483.203 524.478 528.072C495.756 578.842 465.015 613.885 430.506 635.216C405.105 650.915 370.693 664.811 330.995 675.406C293.252 685.474 251.713 692.36 210.863 695.316C195.625 696.419 180.919 696.958 166.849 696.958C99.7961 696.958 47.3306 684.672 22.4031 662.367C3.87036 645.779 0.68378 624.26 12.9349 598.407C37.0818 547.438 59.0057 509.896 84.0139 476.683C108.608 444.025 135.661 416.05 171.338 381.502H171.343Z" fill="#F1ECEC"/>
<path d="M19.518 599.509C8.60715 623.473 12.0037 643.404 29.6213 658.737C52.5787 678.722 99.6184 689.64 159.593 689.64C173.97 689.64 189.096 689.01 204.802 687.734C242.632 684.649 281.049 677.898 315.891 668.207C352.693 657.972 384.629 644.636 408.248 629.637C437.622 611.095 463.766 582.265 488.177 541.498C514.557 497.41 535.674 445.978 556.096 396.237C580.415 336.998 603.389 281.038 632.391 244.789C674.592 192.14 691.235 158.874 681.864 145.915C675.469 137.074 656.925 138.307 626.75 149.587C579.715 167.009 483.967 208.561 384.882 258.62C333.773 284.441 289.371 308.701 252.913 330.721C210.842 356.132 180.569 377.872 162.946 395.343C93.5844 464.434 61.4925 505.663 19.5233 599.509H19.518ZM164.077 396.49C207.973 352.988 321.71 292.345 385.603 260.063C484.635 210.031 580.313 168.511 627.304 151.105C644.184 144.795 657.275 141.64 666.485 141.64C673.327 141.64 678.026 143.379 680.55 146.868C686.665 155.32 683.053 178.993 631.126 243.782C601.978 280.215 578.962 336.271 554.594 395.623C534.199 445.31 513.104 496.683 486.788 540.669C462.512 581.215 436.54 609.868 407.382 628.27C383.891 643.183 352.106 656.454 315.455 666.646C280.71 676.31 242.401 683.039 204.668 686.119C188.956 687.4 173.846 688.03 159.48 688.03C99.9683 688.03 53.3431 677.252 30.6764 657.52C13.6615 642.709 10.3996 623.413 20.9874 600.171C62.8544 506.552 94.8763 465.419 164.077 396.484V396.49Z" fill="#F1ECEC"/>
<path d="M80.3375 498.994C61.6378 526.603 45.8503 557.21 27.5597 601.314C18.323 622.672 21.8002 640.374 37.9054 653.936C58.5966 671.358 99.8606 680.785 152.353 680.785C166.973 680.785 182.464 680.053 198.628 678.562C233.342 675.353 268.523 668.752 300.373 659.465C334.123 649.629 363.437 636.912 385.14 622.693C412.016 605.309 435.851 578.664 458.006 541.241C481.793 501.008 501.294 454.378 520.15 409.289C543.07 354.476 564.719 302.705 591.358 269.109C629.263 221.489 644.125 191.313 635.534 179.425C629.436 170.983 612.437 172.055 583.559 182.704C538.769 198.931 449.572 237.14 359.567 282.677C230.736 347.859 177.582 388.082 155.674 410.349C120.057 446.905 98.2297 472.586 80.3482 498.994H80.3375ZM156.821 411.48C178.642 389.298 231.657 349.199 360.288 284.119C450.234 238.61 539.356 200.433 584.102 184.222C599.954 178.375 612.249 175.452 620.915 175.452C627.401 175.452 631.847 177.089 634.216 180.373C642.214 191.442 626.954 221.78 590.082 268.103C563.303 301.87 541.616 353.743 518.648 408.659C499.814 453.7 480.334 500.281 456.607 540.412C434.581 577.614 410.913 604.087 384.247 621.331C362.667 635.464 333.504 648.111 299.905 657.904C268.152 667.159 233.078 673.743 198.467 676.941C163.732 680.15 130.919 679.816 103.569 675.967C74.5187 671.88 52.1642 663.831 38.9335 652.692C23.4366 639.647 20.11 622.575 29.0346 601.939C47.2875 557.926 63.0266 527.41 81.667 499.893C99.4946 473.572 121.268 447.955 156.81 411.474L156.821 411.48Z" fill="#F1ECEC"/>
<path d="M35.5908 603.115C28.0119 621.873 31.5699 637.362 46.1679 649.147C58.5751 659.166 79.2286 666.252 105.9 669.627C118.119 671.172 131.49 671.948 145.646 671.948C160.524 671.948 176.274 671.092 192.444 669.385C259.583 662.294 322.98 642.24 362.021 615.735C386.4 599.497 407.925 575.038 427.831 540.964C448.985 504.666 466.823 462.92 484.075 422.546C505.644 372.073 526.012 324.394 550.32 293.41C583.935 250.813 597.021 223.732 589.216 212.916C583.505 205.001 567.523 205.944 540.357 215.807C496.331 231.371 415.531 265.521 334.241 306.718C218.162 365.553 169.104 403.703 148.386 425.346C86.7806 490.604 64.6414 525.496 35.5908 603.11V603.115ZM334.968 308.161C416.193 266.991 496.924 232.874 540.895 217.33H540.9C555.73 211.947 567.238 209.255 575.355 209.255C581.486 209.255 585.679 210.789 587.897 213.869C595.126 223.888 581.691 251.049 549.045 292.419C524.607 323.57 504.196 371.341 482.584 421.917C465.354 462.242 447.537 503.945 426.431 540.157C406.655 574.016 385.291 598.297 361.117 614.4C322.281 640.764 259.157 660.722 192.271 667.786C160.831 671.108 131.032 671.189 106.094 668.034C79.7184 664.696 59.3448 657.729 47.1744 647.898C33.1955 636.608 29.799 621.749 37.0872 603.707C66.0517 526.315 88.1263 491.53 149.549 426.466C170.175 404.914 219.088 366.899 334.962 308.167L334.968 308.161Z" fill="#F1ECEC"/>
<path d="M43.6218 604.932C37.6901 621.105 41.3234 634.387 54.4196 644.412C65.7826 653.107 84.466 659.094 108.457 661.721C117.887 662.755 128.05 663.266 138.751 663.266C153.747 663.266 169.788 662.254 186.286 660.246C246.761 652.881 303.823 633.639 338.924 608.792C360.805 593.702 380.021 571.429 397.671 540.708C416.134 508.47 432.234 471.736 447.806 436.213C468.099 389.918 487.267 346.19 509.293 317.731C523.186 299.943 533.149 285.046 538.909 273.46C545.368 260.468 546.687 251.623 542.93 246.417C537.601 239.03 522.637 239.848 497.176 248.92C458.437 262.251 385.888 291.684 308.926 330.776C205.588 383.269 160.632 419.335 141.114 440.359C81.8931 505.218 65.5834 536.81 43.6326 604.932H43.6218ZM309.653 332.219C386.54 293.165 459.002 263.763 497.699 250.449H497.704C511.521 245.523 522.255 243.062 529.828 243.062C535.604 243.062 539.549 244.495 541.616 247.364C549.777 258.681 527.847 291.334 508.012 316.74C485.857 345.356 466.651 389.175 446.32 435.567C430.764 471.052 414.686 507.743 396.266 539.906C378.74 570.411 359.68 592.512 337.998 607.468C303.097 632.18 246.309 651.309 186.092 658.647C157.951 662.076 131.167 662.582 108.635 660.117C84.9397 657.522 66.5308 651.653 55.4047 643.131C42.9329 633.585 39.4825 620.917 45.1559 605.46C67.0367 537.564 83.2926 506.085 142.298 441.457C161.724 420.536 206.53 384.604 309.658 332.219H309.653Z" fill="#F1ECEC"/>
<path d="M76.7311 533.952C64.5876 557.63 58.1822 580.953 51.6529 606.752C47.3414 620.357 51.0501 631.459 62.666 639.734C73.0009 647.099 89.725 651.977 111.035 653.845C117.688 654.426 124.734 654.717 132.082 654.717C147.1 654.717 163.382 653.506 180.144 651.121C233.918 643.465 284.639 625.036 315.811 601.837C335.194 587.882 352.101 567.8 367.496 540.439C383.149 512.497 397.37 481.029 411.128 450.589C430.296 408.18 448.398 368.119 468.255 342.039C493.699 309.004 502.995 288.68 496.671 279.91C491.729 273.056 477.766 273.751 453.975 282.031C415.488 294.877 350.524 320.741 283.6 354.831C233.589 380.302 167.01 418.42 133.826 455.369C105.674 487.312 88.6 510.818 76.7311 533.957V533.952ZM284.332 356.264C351.181 322.216 416.059 296.379 454.491 283.555H454.502C467.319 279.086 477.282 276.857 484.317 276.857C489.748 276.857 493.436 278.187 495.357 280.847C501.128 288.847 491.579 309.101 466.969 341.054C446.999 367.284 428.859 407.426 409.653 449.921C395.911 480.323 381.706 511.765 366.085 539.643C350.809 566.788 334.053 586.703 314.858 600.529C283.88 623.582 233.433 641.898 179.918 649.516C128.136 656.892 83.5672 652.639 63.6026 638.415C52.6164 630.587 49.1177 620.099 53.2032 607.188C59.7217 581.437 66.0948 558.212 78.1629 534.684C89.9672 511.668 106.977 488.265 135.026 456.43C168.044 419.674 234.44 381.67 284.327 356.258L284.332 356.264Z" fill="#F1ECEC"/>
<path d="M75.5199 545.622C66.8161 565.564 63.721 582.733 59.6678 608.624C56.9657 619.693 60.7551 628.62 70.9285 635.161C82.3937 642.531 101.965 646.343 125.962 646.343C140.624 646.343 156.95 644.922 174.072 642.02C196.244 638.262 218.475 632.221 238.358 624.549C260.148 616.14 278.438 606.153 292.708 594.874C309.362 582.216 324.375 563.809 337.325 540.163C349.916 517.045 361.951 491.38 373.584 466.566C391.949 427.393 409.303 390.39 427.217 366.34C448.371 338.36 455.972 321.035 450.449 313.379C445.895 307.064 432.917 307.635 410.784 315.129C363.631 330.333 306.617 354.162 258.275 378.874C180.397 418.682 143.655 450.597 126.538 470.367C100.657 500.866 84.9182 524.071 75.5146 545.622H75.5199ZM411.284 316.674H411.295C423.132 312.663 432.336 310.655 438.849 310.655C443.936 310.655 447.375 311.877 449.146 314.332C454.125 321.24 446.32 338.414 425.931 365.377C407.915 389.561 390.534 426.634 372.13 465.882C360.503 490.68 348.484 516.318 335.915 539.393C323.077 562.834 308.21 581.069 291.723 593.598C264.659 614.993 220.579 632.501 173.809 640.426C129.04 648.012 89.9564 645.476 71.8059 633.804C62.2623 627.667 58.7097 619.316 61.2449 608.974L61.2611 608.909C65.2981 583.126 68.3717 566.043 77.0002 546.268C86.3392 524.873 101.998 501.787 127.77 471.422C183.185 407.414 331.081 342.533 411.284 316.674Z" fill="#F1ECEC"/>
<path d="M74.6266 556.412C68.1243 574.846 67.9466 589.802 67.7205 608.743L67.699 610.514C66.5686 619.004 70.5842 626.014 79.3096 630.784C88.4495 635.78 102.687 638.3 119.885 638.3C134.321 638.3 150.846 636.523 168.195 632.938C208.958 624.512 245.932 608.096 269.616 587.918C283.816 576.348 296.449 560.191 307.166 539.899C315.908 523.231 324.784 505.104 333.364 487.568C351.951 449.591 369.509 413.718 386.195 390.654C403.34 367.39 409.094 353.473 404.314 346.856C400.148 341.085 388.139 341.542 367.593 348.251C284.085 374.141 168.943 425.589 119.266 485.382C95.3878 514.676 81.6188 536.583 74.6266 556.417V556.412ZM368.083 349.785H368.093C378.983 346.226 387.455 344.444 393.446 344.444C398.194 344.444 401.391 345.559 403 347.793C407.194 353.597 401.1 367.692 384.887 389.695C368.12 412.878 350.529 448.81 331.911 486.852C323.336 504.377 314.465 522.493 305.734 539.14C295.12 559.238 282.626 575.228 268.583 586.674C245.082 606.691 208.371 622.977 167.866 631.349C130.214 639.134 96.5774 638.37 80.0847 629.363C71.8599 624.873 68.2373 618.584 69.3031 610.681L69.33 608.759C69.5561 589.969 69.7283 575.131 76.1392 556.95C83.0721 537.299 96.755 515.537 120.504 486.405C169.955 426.887 284.774 375.611 368.072 349.79L368.083 349.785Z" fill="#F1ECEC"/>
<path d="M111.983 500.381C89.9995 528.533 77.7269 549.988 73.3669 567.894C69.3513 584.38 72.1181 596.542 75.3262 610.626L75.746 612.473C76.1228 618.713 80.4183 623.65 88.1748 626.756C94.7902 629.405 103.812 630.713 114.367 630.713C128.486 630.713 145.35 628.371 162.86 623.768C196.384 614.96 226.883 599.347 246.529 580.945C258.28 570.425 268.529 556.524 277.001 539.618C301.127 491.126 326.086 442.462 345.163 414.956C358.06 396.753 362.226 385.743 358.27 380.294C354.491 375.088 343.413 375.438 324.402 381.355C280.053 394.502 240.765 409.852 207.634 426.983C165.541 448.75 133.357 473.446 111.977 500.386L111.983 500.381ZM208.382 428.41C241.427 411.327 280.618 396.01 324.875 382.895H324.886C334.882 379.777 342.649 378.222 348.15 378.222C352.564 378.222 355.514 379.223 356.972 381.231C360.417 385.974 356.122 396.693 343.849 414.019C324.708 441.616 299.716 490.345 275.564 538.892C267.183 555.608 257.053 569.353 245.442 579.75C225.973 597.99 195.727 613.463 162.457 622.201C132.173 630.159 103.946 631.321 88.783 625.249C81.5271 622.341 77.6838 617.986 77.3662 612.306L76.9141 610.26C73.7544 596.375 71.0254 584.385 74.9494 568.271C79.2556 550.596 91.4313 529.335 113.264 501.377C134.493 474.619 166.499 450.069 208.393 428.41H208.382Z" fill="#F1ECEC"/>
<path d="M104.705 515.392C83.621 543.668 73.1946 564.439 71.9027 580.757C70.7239 595.66 77.4093 605.27 83.8901 614.557C86.0055 618.966 91.3936 621.971 99.4731 623.246C102.557 623.736 105.959 623.973 109.62 623.973C123.695 623.973 141.55 620.431 159.539 613.922C185.263 604.608 207.962 590.416 223.443 573.963C232.744 564.428 240.614 552.777 246.836 539.334C259.249 512.323 278.53 478.647 304.141 439.243C313.022 425.859 315.574 417.971 312.409 413.67C308.975 409.002 299.065 409.255 281.216 414.456C250.254 423.161 214.298 434.322 182.313 451.028C149.985 467.917 124.6 488.968 104.7 515.392H104.705ZM183.067 452.46C214.922 435.819 250.787 424.696 281.668 416.011H281.673C290.867 413.33 298.005 411.99 303.043 411.99C307.123 411.99 309.82 412.867 311.117 414.633C313.744 418.208 311.025 425.966 302.801 438.365C276.78 478.394 258 511.203 245.383 538.666C239.241 551.943 231.474 563.443 222.291 572.854C206.972 589.134 184.493 603.181 159.006 612.409C136.582 620.528 114.426 623.984 99.7422 621.658C92.1741 620.458 87.1897 617.744 85.3327 613.809L85.2627 613.69C78.6419 604.204 72.3818 595.245 73.5229 580.892C74.7879 564.891 85.112 544.389 106.008 516.372C125.757 490.147 150.964 469.247 183.078 452.471L183.067 452.46Z" fill="#F1ECEC"/>
<path d="M97.4222 530.404C76.2196 560.284 67.6987 581.75 71.3643 596.012C74.0772 606.58 83.0233 612.179 92.287 616.659C95.4198 618.177 99.6937 618.915 104.753 618.915C114.184 618.915 126.344 616.346 138.955 611.469C150.146 607.14 166.913 599.005 183.223 584.856C198.553 571.553 209.814 556.139 216.687 539.034C224.455 519.701 238.105 500.238 249.075 484.604C261.913 466.299 271.193 453.071 267.027 447.1C264.099 442.895 255.163 443.04 238.046 447.563C201.783 457.152 178.233 463.79 156.998 475.08C134.127 487.242 116.31 503.781 97.4276 530.399L97.4222 530.404ZM157.752 476.512C178.836 465.303 202.305 458.691 238.455 449.13C254.372 444.919 263.28 444.559 265.697 448.026C269.218 453.076 259.265 467.257 247.746 483.683C236.733 499.388 223.023 518.931 215.186 538.437C202.73 569.437 174.013 596.179 138.369 609.967C119.394 617.31 101.578 619.367 92.9868 615.205C84.0784 610.893 75.4768 605.536 72.9253 595.608C69.3835 581.831 77.829 560.807 98.7409 531.336C117.467 504.939 135.117 488.539 157.752 476.506V476.512Z" fill="#F1ECEC"/>
<path d="M643.248 734.595C662.233 733.987 683.145 735.23 705.295 736.549C725.297 737.739 746.322 738.994 767.885 738.994C848.631 738.994 936.785 721.405 1005.89 617.136C1023.66 590.324 1036.22 550.764 1043.21 499.547C1049.47 453.639 1050.8 400.555 1047.04 346.032C1043.39 293.158 1035.31 242.969 1023.66 200.9C1011.42 156.693 996.011 124.713 979.098 108.411C963.327 93.2123 946.726 91.6779 929.76 103.856C903.831 122.468 869.048 141.414 832.225 161.474C772.74 193.874 711.232 227.383 676.373 264.86C620.097 325.369 576.906 467.379 548.323 561.354C544.857 572.751 541.584 583.519 538.532 593.334C522.615 644.513 523.407 680.595 540.954 703.649C558.071 726.137 591.536 736.264 643.259 734.595H643.248ZM540.066 593.808C543.118 583.987 546.396 573.22 549.863 561.822C578.397 467.993 621.523 326.198 677.547 265.958C712.222 228.67 773.618 195.231 832.989 162.89C869.861 142.803 904.687 123.836 930.697 105.164C946.936 93.5084 962.848 94.989 977.973 109.568C994.681 125.671 1009.94 157.399 1022.1 201.325C1033.72 243.292 1041.79 293.368 1045.42 346.14C1049.18 400.555 1047.85 453.526 1041.6 499.327C1034.74 549.585 1021.93 590.012 1004.54 616.242C917.493 747.576 799.885 740.566 705.386 734.934C687.198 733.852 669.833 732.813 653.669 732.813C650.116 732.813 646.623 732.862 643.194 732.975C639.561 733.093 636.024 733.152 632.568 733.152C587.423 733.152 557.813 723.138 542.225 702.664C525.016 680.057 524.311 644.448 540.061 593.802L540.066 593.808Z" fill="#F1ECEC"/>
<path d="M661.829 712.936C662.211 712.936 662.599 712.936 662.981 712.936C676.535 714.142 691.187 716.247 706.689 718.476C735.395 722.6 766.518 727.074 798.497 727.074C817.11 727.074 836.02 725.556 854.903 721.577C914.457 709.022 961.879 674.145 999.87 614.961C1016.22 589.84 1027.79 553.025 1034.26 505.539C1040.06 462.969 1041.35 413.793 1037.97 363.314C1034.7 314.397 1027.36 267.896 1016.73 228.847C1005.58 187.86 991.495 158.055 976.009 142.647C961.884 128.595 946.996 126.565 931.757 136.595C910.565 150.206 882.629 164.403 853.051 179.434C797.027 207.904 733.533 240.175 698.421 277.797C673.741 304.264 649.53 348.283 624.392 412.366C603.244 466.28 585.443 524.657 572.444 567.287C571.098 571.691 569.801 575.96 568.541 580.068C554.002 627.042 554.734 660.411 570.764 682.076C586.126 702.836 615.914 712.936 661.818 712.936H661.829ZM570.091 580.547C571.351 576.439 572.653 572.17 573.994 567.766C600.122 482.093 643.856 338.705 699.611 278.906C734.523 241.494 797.889 209.293 853.788 180.883C883.399 165.835 911.373 151.621 932.64 137.957C947.157 128.396 961.362 130.361 974.873 143.799C990.16 159.003 1004.1 188.565 1015.18 229.278C1025.78 268.225 1033.11 314.612 1036.37 363.427C1039.74 413.793 1038.46 462.862 1032.67 505.324C1026.22 552.573 1014.74 589.167 998.519 614.088C960.77 672.896 913.687 707.541 854.574 719.999C803.524 730.762 752.205 723.386 706.92 716.882C691.375 714.648 676.696 712.537 663.089 711.326H663.051H663.013C662.615 711.326 662.222 711.326 661.824 711.326C616.474 711.326 587.106 701.441 572.067 681.123C556.36 659.9 555.714 627.004 570.086 580.552L570.091 580.547Z" fill="#F1ECEC"/>
<path d="M682.709 691.265C690.417 693.063 698.475 695.109 707.006 697.279C740.401 705.758 780.389 715.912 821.233 715.912C830.933 715.912 840.686 715.336 850.408 714.033C878.204 710.302 902.728 701.236 925.389 686.322C951.076 669.412 974.114 644.662 993.858 612.774C1008.77 589.354 1019.36 555.301 1025.32 511.574C1030.66 472.368 1031.92 427.117 1028.94 380.708C1026.05 335.764 1019.45 292.962 1009.87 256.923C999.816 219.15 987.081 191.482 973.037 176.914C960.533 163.939 947.324 161.392 933.786 169.333C917.649 178.222 896.995 187.73 875.131 197.798C819.446 223.43 756.328 252.487 720.501 290.739C696.704 316.188 672.352 359.868 648.114 420.576C628.262 470.29 611.931 522.4 598.576 566.812C585.426 609.565 586.083 640.215 600.579 660.507C614.439 679.899 641.305 689.967 682.709 691.27V691.265ZM600.121 567.275C619.413 503.126 664.59 352.895 721.68 291.837C757.292 253.822 820.254 224.835 875.809 199.262C897.7 189.183 918.381 179.665 934.588 170.733C947.415 163.206 959.957 165.661 971.88 178.028C985.735 192.398 998.331 219.823 1008.31 257.332C1017.88 293.269 1024.45 335.969 1027.33 380.805C1030.31 427.106 1029.06 472.25 1023.73 511.347C1017.79 554.843 1007.29 588.676 992.496 611.907C955.5 671.657 908.956 704.536 850.198 712.423C840.552 713.715 830.885 714.286 821.249 714.286C780.599 714.286 740.708 704.159 707.405 695.701C698.835 693.526 690.745 691.469 682.994 689.666L682.838 689.644C641.924 688.363 615.446 678.521 601.892 659.548C587.703 639.693 587.122 609.506 600.121 567.264V567.275Z" fill="#F1ECEC"/>
<path d="M702.42 669.591L705.338 670.781C743.291 686.259 790.234 705.41 839.072 705.404C840.649 705.404 842.226 705.383 843.809 705.345C871.336 704.634 896.667 697.425 919.108 683.917C945.101 668.272 968.231 643.592 987.845 610.584C1013.49 569.241 1025.48 489.878 1019.92 398.294C1014.68 312.098 995.171 238.679 970.217 211.253C959.29 199.247 947.712 196.157 935.832 202.063C925.362 206.65 912.675 211.646 899.245 216.939C848.906 236.767 779.964 263.924 742.57 303.673C720.286 327.426 697.554 366.76 675.001 420.583C654.88 468.601 638.667 519.398 628.607 553.542C616.851 592.047 617.422 619.973 630.356 638.908C642.57 656.788 666.146 666.829 702.426 669.591H702.42ZM630.146 554.005C650.692 484.247 692.769 359.11 743.738 304.776C780.884 265.291 849.633 238.21 899.827 218.441C913.273 213.143 925.971 208.142 936.505 203.528C947.695 197.966 958.633 200.933 969.011 212.341C981.408 225.967 992.647 251.309 1001.5 285.62C1010.01 318.57 1015.81 357.565 1018.29 398.39C1020.85 440.594 1019.63 481.775 1014.75 517.476C1009.33 557.176 999.811 588.219 986.456 609.749C966.971 642.537 944.03 667.028 918.268 682.534C896.07 695.896 871.002 703.03 843.76 703.73C793.577 705.022 744.982 685.204 705.941 669.284L702.792 667.997L702.668 667.987C666.84 665.273 643.619 655.464 631.686 637.993C619.047 619.489 618.541 592.021 630.146 554.005Z" fill="#F1ECEC"/>
<path d="M722.127 647.904C756.576 669.343 804.999 695.357 854.348 695.352C864.877 695.352 875.459 694.168 885.945 691.497C923.764 681.876 956.033 653.907 981.833 608.392C1004.65 570.425 1015.52 498.583 1010.92 416.221C1006.6 338.898 989.611 271.993 967.649 245.774C958.24 234.543 948.223 230.85 937.872 234.796C934.621 235.76 931.149 236.767 927.489 237.833C881.891 251.099 805.58 273.302 764.639 316.604C743.814 338.721 722.697 373.705 701.887 420.587C680.039 469.812 665.409 516.711 658.637 540.276C648.286 574.501 648.76 599.692 660.085 617.286C670.646 633.691 690.939 643.705 722.132 647.91L722.127 647.904ZM660.177 540.733C666.943 517.201 681.546 470.383 703.357 421.244C724.097 374.529 745.105 339.695 765.807 317.713C806.447 274.728 882.5 252.601 927.935 239.383C931.606 238.317 935.094 237.3 938.356 236.336L938.416 236.315C948.061 232.627 957.481 236.158 966.406 246.813C988.163 272.785 1005 339.318 1009.31 416.313C1013.89 498.368 1003.11 569.865 980.433 607.579C967.019 631.241 951.759 650.278 935.084 664.163C919.974 676.745 903.304 685.413 885.536 689.936C875.185 692.569 864.747 693.742 854.337 693.737C805.327 693.737 757.093 667.781 722.821 646.44L722.676 646.348L722.503 646.327C691.709 642.208 671.733 632.42 661.425 616.409C650.369 599.24 649.96 574.485 660.166 540.733H660.177Z" fill="#F1ECEC"/>
<path d="M741.822 626.207C763.735 645.799 785.858 660.895 807.577 671.076C828.414 680.848 848.357 685.758 867.094 685.758C873.096 685.758 878.979 685.252 884.723 684.245C920.776 677.903 951.431 651.641 975.815 606.206C986.316 588.03 993.906 562.576 998.363 530.558C1002.37 501.813 1003.61 468.708 1001.96 434.817C998.648 366.7 984.341 306.235 965.512 280.774C957.503 269.942 948.906 265.484 939.966 267.53C924.948 269.183 895.203 273.506 864.397 283.892C830.917 295.176 804.773 310.536 786.698 329.547C744.863 373.753 706.549 462.904 688.651 527.021C679.727 556.901 680.077 579.341 689.722 595.611C698.604 610.594 715.646 620.603 741.816 626.213L741.822 626.207ZM690.207 527.462C708.051 463.518 746.225 374.658 787.871 330.656C830.777 285.534 908.687 272.596 940.192 269.129L940.283 269.113C948.551 267.202 956.604 271.449 964.215 281.733C982.866 306.956 997.055 367.077 1000.35 434.892C1002 468.681 1000.76 501.684 996.77 530.332C992.34 562.145 984.82 587.4 974.41 605.42C950.257 650.418 919.99 676.401 884.448 682.651C878.796 683.647 873.01 684.143 867.1 684.143C848.605 684.143 828.882 679.281 808.266 669.617C786.639 659.479 764.591 644.421 742.742 624.861L742.581 624.716L742.371 624.673C716.55 619.171 699.783 609.393 691.122 594.782C681.718 578.921 681.417 556.906 690.212 527.462H690.207Z" fill="#F1ECEC"/>
<path d="M761.517 604.49C773.72 619.726 793.458 641.122 818.45 656.918C839.082 669.958 859.058 676.531 877.973 676.531C880.761 676.531 883.528 676.386 886.267 676.101C919.366 672.644 947.48 648.379 969.808 604.011C978.737 587.757 985.283 565.474 989.261 537.779C992.835 512.879 994.154 484.188 993.072 454.803C992.033 426.576 988.852 398.876 983.878 374.697C978.754 349.791 971.944 329.855 964.193 317.058C957.449 305.918 950.123 300.276 942.404 300.276C942.318 300.276 942.226 300.276 942.14 300.276C909.209 295.608 846.575 302.995 808.778 342.475C790.745 361.415 772.379 388.426 755.666 420.589C739.755 451.201 726.626 484.291 718.692 513.746C711.269 539.033 711.415 558.577 719.128 573.495C726.266 587.294 740.137 597.432 761.528 604.485L761.517 604.49ZM720.237 514.192C728.144 484.829 741.235 451.853 757.093 421.343C773.736 389.314 792.016 362.427 809.94 343.594C847.34 304.529 909.381 297.245 941.973 301.886L942.038 301.897H942.103C942.199 301.897 942.302 301.897 942.399 301.897C949.509 301.897 956.378 307.28 962.81 317.897C978.081 343.11 989.325 396.873 991.457 454.868C992.533 484.156 991.225 512.75 987.662 537.553C983.716 565.059 977.23 587.16 968.381 603.263C946.301 647.136 918.618 671.105 886.101 674.502C865.14 676.693 842.673 670.319 819.312 655.556C794.406 639.819 774.743 618.451 762.626 603.3L762.475 603.112L762.244 603.037C741.149 596.124 727.509 586.223 720.549 572.763C713.035 558.232 712.927 539.082 720.232 514.192H720.237Z" fill="#F1ECEC"/>
<path d="M781.213 582.745C805.128 624.163 845.31 667.648 887.393 667.648C888.265 667.648 889.142 667.627 890.019 667.589C903.864 666.986 916.938 661.543 928.883 651.4C941.855 640.379 953.606 623.689 963.8 601.815C977.537 575.095 984.971 529.94 984.19 477.932C983.474 430.237 975.869 383.995 964.339 357.248C958.353 343.363 951.63 335.239 944.358 333.091C929.932 325.822 909.86 323.012 890.644 325.564C874.42 327.718 850.881 334.647 830.842 355.412C793.674 394.16 761.437 451.115 748.712 500.491C742.78 521.224 742.726 537.898 748.55 551.454C753.96 564.041 764.645 574.276 781.213 582.74V582.745ZM750.267 500.916C762.933 451.767 795.019 395.096 832.004 356.532C851.721 336.1 874.888 329.284 890.859 327.163C909.795 324.649 929.545 327.416 943.701 334.566L943.841 334.62C950.559 336.563 957.137 344.612 962.858 357.883C974.313 384.447 981.865 430.452 982.575 477.948C983.351 529.698 975.982 574.572 962.353 601.093C952.244 622.779 940.633 639.286 927.838 650.156C916.179 660.062 903.433 665.382 889.949 665.963C862.158 667.169 819.339 645.671 782.494 581.717L782.375 581.507L782.16 581.399C765.818 573.097 755.311 563.089 750.036 550.808C744.362 537.607 744.438 521.288 750.267 500.905V500.916Z" fill="#F1ECEC"/>
<path d="M800.919 560.963C812.373 588.797 826.896 612.728 842.92 630.183C860.194 648.999 878.253 658.992 895.149 659.089C895.23 659.089 895.316 659.089 895.397 659.089C907.066 659.089 918.123 654.426 928.258 645.225C939.244 635.26 949.181 619.9 957.788 599.608C971.374 570.616 977.548 521.311 974.313 467.714C971.245 416.939 960.361 377.04 946.581 366.014C935.067 353.706 918.806 346.546 901.953 346.363C884.055 346.18 867.1 353.771 852.905 368.345C824.781 397.38 790.934 437.14 778.731 487.236C774.291 503.431 774.043 517.219 777.972 529.397C781.659 540.806 789.163 551.132 800.914 560.963H800.919ZM780.298 487.645C792.414 437.904 826.089 398.365 854.068 369.475C867.778 355.402 884.098 347.978 901.307 347.978C901.517 347.978 901.732 347.978 901.942 347.978C918.376 348.15 934.228 355.144 945.445 367.155L945.532 367.236C958.994 377.933 969.657 417.408 972.704 467.806C975.928 521.144 969.808 570.158 956.318 598.94C947.792 619.044 937.99 634.21 927.176 644.019C917.342 652.94 906.657 657.463 895.397 657.463C895.316 657.463 895.235 657.463 895.16 657.463C878.726 657.371 861.071 647.556 844.11 629.079C828.177 611.722 813.73 587.887 802.335 560.15L802.259 559.967L802.103 559.837C790.503 550.168 783.113 540.046 779.512 528.891C775.679 517.025 775.932 503.533 780.292 487.635L780.298 487.645Z" fill="#F1ECEC"/>
<path d="M900.806 650.814C901.237 650.83 901.667 650.841 902.098 650.841C921.438 650.841 938.604 632.395 951.791 597.395C973.898 543.191 968.903 434.604 948.729 399C939.804 380.48 926.482 368.496 912.169 366.116C899.676 364.038 886.816 369.282 874.98 381.288C870.884 385.46 866.69 389.498 862.25 393.778C840.024 415.19 817.045 437.333 808.756 473.992C803.007 496.701 806.673 516.794 820.641 539.137C829.566 570.584 841.688 597.804 855.704 617.87C870.329 638.797 885.923 650.189 900.806 650.819V650.814ZM822.132 538.474L822.073 538.377C808.304 516.401 804.681 496.663 810.328 474.369C818.515 438.162 841.316 416.191 863.369 394.941C867.815 390.655 872.019 386.607 876.126 382.418C887.575 370.805 899.945 365.717 911.9 367.704C925.696 369.998 938.588 381.67 947.281 399.722L947.308 399.77C956.797 416.493 963.364 451.434 964.457 490.956C965.62 533.284 960.458 571.86 950.29 596.798C937.07 631.884 920.001 650.017 900.876 649.193C886.515 648.59 871.352 637.435 857.028 616.933C843.098 596.997 831.041 569.9 822.164 538.577L822.132 538.464V538.474Z" fill="#F1ECEC"/>
<path d="M906.281 642.845C906.733 642.877 907.18 642.888 907.632 642.888C922.52 642.888 935.692 626.435 945.79 595.155C956.012 563.503 960.221 516.707 956.776 473.022C955.102 451.767 951.7 432.686 946.942 417.849C941.71 401.525 935.1 390.827 927.306 386.057C918.214 380.49 908.03 383.236 897.049 394.213C891.037 400.222 884.05 405.191 877.289 409.994C852.717 427.453 827.311 445.511 840.385 517.283C846.834 552.682 856.512 583.445 868.381 606.256C880.395 629.347 893.497 642 906.281 642.845ZM846.053 444.116C853.638 428.783 866.142 419.9 878.226 411.307C885.035 406.467 892.081 401.46 898.19 395.355C905.156 388.394 911.728 384.899 917.827 384.899C920.825 384.899 923.705 385.745 926.461 387.43C940.897 396.265 951.63 428.309 955.161 473.146C958.59 516.631 954.408 563.191 944.245 594.654C934.093 626.09 921.013 642.199 906.378 641.23C881.477 639.582 854.994 588.489 841.968 516.992C836.176 485.206 837.511 461.366 846.042 444.116H846.053Z" fill="#F1ECEC"/>
</g>
<defs>
<filter id="filter0_d_147_6112" x="-0.000244141" y="0" width="1063.01" height="744.992" filterUnits="userSpaceOnUse" color-interpolation-filters="sRGB">
<feFlood flood-opacity="0" result="BackgroundImageFix"/>
<feColorMatrix in="SourceAlpha" type="matrix" values="0 0 0 0 0 0 0 0 0 0 0 0 0 0 0 0 0 0 127 0" result="hardAlpha"/>
<feOffset dy="2"/>
<feGaussianBlur stdDeviation="2"/>
<feColorMatrix type="matrix" values="0 0 0 0 0.918799 0 0 0 0 0.903231 0 0 0 0 0.903231 0 0 0 0.8 0"/>
<feBlend mode="normal" in2="BackgroundImageFix" result="effect1_dropShadow_147_6112"/>
<feBlend mode="normal" in="SourceGraphic" in2="effect1_dropShadow_147_6112" result="shape"/>
</filter>
</defs>
</svg>
