<svg width="25" height="24" viewBox="0 0 25 24" fill="none" xmlns="http://www.w3.org/2000/svg">
<path d="M4.5 5.5C4.5 4.6875 5.15625 4 6 4H9C9.25 4 9.5 4.25 9.5 4.5C9.5 4.78125 9.25 5 9 5H6C5.71875 5 5.5 5.25 5.5 5.5V8.5C5.5 8.78125 5.25 9 5 9C4.71875 9 4.5 8.78125 4.5 8.5V5.5ZM14.5 12C14.5 13.125 13.5938 14 12.5 14C11.375 14 10.5 13.125 10.5 12C10.5 10.9062 11.375 10 12.5 10C13.5938 10 14.5 10.9062 14.5 12ZM12.5 11C11.9375 11 11.5 11.4688 11.5 12C11.5 12.5625 11.9375 13 12.5 13C13.0312 13 13.5 12.5625 13.5 12C13.5 11.4688 13.0312 11 12.5 11ZM14.6562 7.5L14.875 8H15.75C16.6875 8 17.5 8.8125 17.5 9.75V14.25C17.5 15.2188 16.6875 16 15.75 16H9.25C8.28125 16 7.5 15.2188 7.5 14.25V9.75C7.5 8.8125 8.28125 8 9.25 8H10.125L10.3125 7.5C10.4062 7.21875 10.6875 7 11 7H13.9688C14.2812 7 14.5625 7.21875 14.6562 7.5ZM9.25 9C8.8125 9 8.5 9.34375 8.5 9.75V14.25C8.5 14.6875 8.8125 15 9.25 15H15.75C16.1562 15 16.5 14.6875 16.5 14.25V9.75C16.5 9.34375 16.1562 9 15.75 9H14.1562L13.7812 8H11.1875L10.8125 9H9.25ZM19 4C19.8125 4 20.5 4.6875 20.5 5.5V8.5C20.5 8.78125 20.25 9 20 9C19.7188 9 19.5 8.78125 19.5 8.5V5.5C19.5 5.25 19.25 5 19 5H16C15.7188 5 15.5 4.78125 15.5 4.5C15.5 4.25 15.7188 4 16 4H19ZM4.5 15.5C4.5 15.25 4.71875 15 5 15C5.25 15 5.5 15.25 5.5 15.5V18.5C5.5 18.7812 5.71875 19 6 19H9C9.25 19 9.5 19.25 9.5 19.5C9.5 19.7812 9.25 20 9 20H6C5.15625 20 4.5 19.3438 4.5 18.5V15.5ZM16 20C15.7188 20 15.5 19.7812 15.5 19.5C15.5 19.25 15.7188 19 16 19H19C19.25 19 19.5 18.7812 19.5 18.5V15.5C19.5 15.25 19.7188 15 20 15C20.25 15 20.5 15.25 20.5 15.5V18.5C20.5 19.3438 19.8125 20 19 20H16Z" fill="white"/>
</svg>
